<svg xmlns="http://www.w3.org/2000/svg" viewBox="0 0 13.03 16"><defs><style>.cls-1{fill:#5a595c;}</style></defs><title>appleLogo</title><g id="Ebene_2" data-name="Ebene 2"><g id="Layer_1" data-name="Layer 1"><path class="cls-1" d="M10.88,8.5a3.59,3.59,0,0,1,1.73-3A3.72,3.72,0,0,0,9.68,3.87c-1.24-.13-2.43.73-3.06.73S5,3.89,4,3.91a3.92,3.92,0,0,0-3.31,2C-.74,8.36.31,12,1.68,14c.68,1,1.48,2.07,2.53,2s1.4-.66,2.62-.66S8.4,16,9.47,16s1.78-1,2.45-2A9,9,0,0,0,13,11.74,3.53,3.53,0,0,1,10.88,8.5"/><path class="cls-1" d="M8.87,2.55A3.5,3.5,0,0,0,9.7,0,3.6,3.6,0,0,0,7.34,1.21a3.36,3.36,0,0,0-.85,2.48A3,3,0,0,0,8.87,2.55"/></g></g></svg>