<svg xmlns="http://www.w3.org/2000/svg" viewBox="0 0 18.7 10.46"><defs><style>.cls-1{fill:#5a595c;}</style></defs><title>playerForward</title><g id="Ebene_2" data-name="Ebene 2"><g id="Layer_1" data-name="Layer 1"><g id="playerForwardBtn"><path class="cls-1" d="M8.56,4.22a1.07,1.07,0,0,1,0,2l-1.69,1-3.45,2-1.69,1c-.95.56-1.73.11-1.73-1v-8C0,.13.78-.32,1.73.24l1.69,1,3.45,2Z"/><path class="cls-1" d="M18,4.22a1.07,1.07,0,0,1,0,2l-1.69,1-3.46,2-1.68,1c-.95.56-1.73.11-1.73-1v-8c0-1.1.78-1.55,1.73-1l1.68,1,3.46,2Z"/></g></g></g></svg>