<svg xmlns="http://www.w3.org/2000/svg" viewBox="0 0 18.7 10.46"><defs><style>.cls-1{fill:#5a595c;}</style></defs><title>playerBackward</title><g id="Ebene_2" data-name="Ebene 2"><g id="Layer_1" data-name="Layer 1"><g id="playerBackwardBtn"><path class="cls-1" d="M10.14,6.24a1.07,1.07,0,0,1,0-2l1.69-1,3.45-2L17,.24c1-.56,1.73-.11,1.73,1v8c0,1.1-.78,1.55-1.73,1l-1.69-1-3.45-2Z"/><path class="cls-1" d="M.71,6.24a1.07,1.07,0,0,1,0-2l1.69-1,3.46-2,1.68-1c1-.56,1.73-.11,1.73,1v8c0,1.1-.78,1.55-1.73,1l-1.68-1-3.46-2Z"/></g></g></g></svg>