<svg xmlns="http://www.w3.org/2000/svg" viewBox="0 0 18 18"><defs><style>.cls-1{fill:#5a595c;}</style></defs><title>sort</title><g id="Ebene_2" data-name="Ebene 2"><g id="Layer_1" data-name="Layer 1"><g id="sortBtn"><path class="cls-1" d="M6.3,18a1,1,0,0,1-1-1V3.41L1.71,7A1,1,0,0,1,.29,5.57L5.59.29A1,1,0,0,1,6.68.08,1,1,0,0,1,7.3,1V17A1,1,0,0,1,6.3,18Z"/><path class="cls-1" d="M11.7,18a.84.84,0,0,1-.38-.08A1,1,0,0,1,10.7,17V1a1,1,0,0,1,2,0V14.59L16.29,11a1,1,0,1,1,1.42,1.42l-5.3,5.28A1,1,0,0,1,11.7,18Z"/></g></g></g></svg>