<svg xmlns="http://www.w3.org/2000/svg" viewBox="0 0 18.15 16"><defs><style>.cls-1{fill:#5a595c;}</style></defs><title>winLogo</title><g id="Ebene_2" data-name="Ebene 2"><g id="Layer_1" data-name="Layer 1"><path class="cls-1" d="M3.77.77s3.63-2,6.73.4l-1.73,6S6.82,5.8,5.38,6A17.09,17.09,0,0,0,2,6.78Z"/><path class="cls-1" d="M1.73,7.83A8.84,8.84,0,0,1,5.29,7,6.71,6.71,0,0,1,8.48,8.23l-1.76,6a6.93,6.93,0,0,0-3.33-1.15A9.33,9.33,0,0,0,0,13.85Z"/><path class="cls-1" d="M9.39,8.81A7.33,7.33,0,0,0,12.45,10a9,9,0,0,0,3.64-.76l0,0s-1.74,6-1.74,6a9,9,0,0,1-3.64.8,6.13,6.13,0,0,1-3.09-1.2Z"/><path class="cls-1" d="M11.42,1.8,9.68,7.74A5,5,0,0,0,13.09,9a9.19,9.19,0,0,0,3.34-.83l1.72-6A9.73,9.73,0,0,1,14.36,3,6,6,0,0,1,11.42,1.8Z"/></g></g></svg>